%TF.GenerationSoftware,KiCad,Pcbnew,10.0.6*%
%TF.CreationDate,2026-10-09T21:38:27+01:00*%
%TF.ProjectId,PCB Week,50434220-5765-4656-9b2e-6b696361645f,rev?*%
%TF.SameCoordinates,Original*%
%TF.FileFunction,Legend,Top*%
%TF.FilePolarity,Positive*%
%FSLAX46Y46*%
G04 Gerber Fmt 4.6, Leading zero omitted, Abs format (unit mm)*
G04 Created by KiCad (PCBNEW 10.0.6) date 2026-10-09 21:38:27*
%MOMM*%
%LPD*%
G01*
G04 APERTURE LIST*
%ADD10C,0.100000*%
%ADD11C,0.300000*%
%ADD12C,0.150000*%
%ADD13C,0.101600*%
%ADD14C,0.000000*%
%ADD15C,0.120000*%
%ADD16C,0.504000*%
%ADD17C,0.127000*%
G04 APERTURE END LIST*
D10*
X140690000Y-60330000D02*
X141960000Y-60330000D01*
X139360000Y-57603000D02*
X139360000Y-59000000D01*
D11*
X141678572Y-96249757D02*
X141535715Y-96178328D01*
X141535715Y-96178328D02*
X141321429Y-96178328D01*
X141321429Y-96178328D02*
X141107143Y-96249757D01*
X141107143Y-96249757D02*
X140964286Y-96392614D01*
X140964286Y-96392614D02*
X140892857Y-96535471D01*
X140892857Y-96535471D02*
X140821429Y-96821185D01*
X140821429Y-96821185D02*
X140821429Y-97035471D01*
X140821429Y-97035471D02*
X140892857Y-97321185D01*
X140892857Y-97321185D02*
X140964286Y-97464042D01*
X140964286Y-97464042D02*
X141107143Y-97606900D01*
X141107143Y-97606900D02*
X141321429Y-97678328D01*
X141321429Y-97678328D02*
X141464286Y-97678328D01*
X141464286Y-97678328D02*
X141678572Y-97606900D01*
X141678572Y-97606900D02*
X141750000Y-97535471D01*
X141750000Y-97535471D02*
X141750000Y-97035471D01*
X141750000Y-97035471D02*
X141464286Y-97035471D01*
X142607143Y-96178328D02*
X142607143Y-96535471D01*
X142250000Y-96392614D02*
X142607143Y-96535471D01*
X142607143Y-96535471D02*
X142964286Y-96392614D01*
X142392857Y-96821185D02*
X142607143Y-96535471D01*
X142607143Y-96535471D02*
X142821429Y-96821185D01*
X143750000Y-96178328D02*
X143750000Y-96535471D01*
X143392857Y-96392614D02*
X143750000Y-96535471D01*
X143750000Y-96535471D02*
X144107143Y-96392614D01*
X143535714Y-96821185D02*
X143750000Y-96535471D01*
X143750000Y-96535471D02*
X143964286Y-96821185D01*
X144892857Y-96178328D02*
X144892857Y-96535471D01*
X144535714Y-96392614D02*
X144892857Y-96535471D01*
X144892857Y-96535471D02*
X145250000Y-96392614D01*
X144678571Y-96821185D02*
X144892857Y-96535471D01*
X144892857Y-96535471D02*
X145107143Y-96821185D01*
D12*
X143938066Y-69326019D02*
X143938066Y-70040304D01*
X143938066Y-70040304D02*
X143890447Y-70183161D01*
X143890447Y-70183161D02*
X143795209Y-70278400D01*
X143795209Y-70278400D02*
X143652352Y-70326019D01*
X143652352Y-70326019D02*
X143557114Y-70326019D01*
X144938066Y-70326019D02*
X144366638Y-70326019D01*
X144652352Y-70326019D02*
X144652352Y-69326019D01*
X144652352Y-69326019D02*
X144557114Y-69468876D01*
X144557114Y-69468876D02*
X144461876Y-69564114D01*
X144461876Y-69564114D02*
X144366638Y-69611733D01*
X140156667Y-60661438D02*
X140090000Y-60613819D01*
X140090000Y-60613819D02*
X139990000Y-60613819D01*
X139990000Y-60613819D02*
X139890000Y-60661438D01*
X139890000Y-60661438D02*
X139823334Y-60756676D01*
X139823334Y-60756676D02*
X139790000Y-60851914D01*
X139790000Y-60851914D02*
X139756667Y-61042390D01*
X139756667Y-61042390D02*
X139756667Y-61185247D01*
X139756667Y-61185247D02*
X139790000Y-61375723D01*
X139790000Y-61375723D02*
X139823334Y-61470961D01*
X139823334Y-61470961D02*
X139890000Y-61566200D01*
X139890000Y-61566200D02*
X139990000Y-61613819D01*
X139990000Y-61613819D02*
X140056667Y-61613819D01*
X140056667Y-61613819D02*
X140156667Y-61566200D01*
X140156667Y-61566200D02*
X140190000Y-61518580D01*
X140190000Y-61518580D02*
X140190000Y-61185247D01*
X140190000Y-61185247D02*
X140056667Y-61185247D01*
X140490000Y-61613819D02*
X140490000Y-60613819D01*
X140490000Y-60613819D02*
X140890000Y-61613819D01*
X140890000Y-61613819D02*
X140890000Y-60613819D01*
X141223333Y-61613819D02*
X141223333Y-60613819D01*
X141223333Y-60613819D02*
X141390000Y-60613819D01*
X141390000Y-60613819D02*
X141490000Y-60661438D01*
X141490000Y-60661438D02*
X141556667Y-60756676D01*
X141556667Y-60756676D02*
X141590000Y-60851914D01*
X141590000Y-60851914D02*
X141623333Y-61042390D01*
X141623333Y-61042390D02*
X141623333Y-61185247D01*
X141623333Y-61185247D02*
X141590000Y-61375723D01*
X141590000Y-61375723D02*
X141556667Y-61470961D01*
X141556667Y-61470961D02*
X141490000Y-61566200D01*
X141490000Y-61566200D02*
X141390000Y-61613819D01*
X141390000Y-61613819D02*
X141223333Y-61613819D01*
X142296666Y-60613819D02*
X142530000Y-61613819D01*
X142530000Y-61613819D02*
X142763333Y-60613819D01*
X142996666Y-61613819D02*
X142996666Y-60613819D01*
X142996666Y-60613819D02*
X143163333Y-60613819D01*
X143163333Y-60613819D02*
X143263333Y-60661438D01*
X143263333Y-60661438D02*
X143330000Y-60756676D01*
X143330000Y-60756676D02*
X143363333Y-60851914D01*
X143363333Y-60851914D02*
X143396666Y-61042390D01*
X143396666Y-61042390D02*
X143396666Y-61185247D01*
X143396666Y-61185247D02*
X143363333Y-61375723D01*
X143363333Y-61375723D02*
X143330000Y-61470961D01*
X143330000Y-61470961D02*
X143263333Y-61566200D01*
X143263333Y-61566200D02*
X143163333Y-61613819D01*
X143163333Y-61613819D02*
X142996666Y-61613819D01*
X143696666Y-61613819D02*
X143696666Y-60613819D01*
X143696666Y-60613819D02*
X143863333Y-60613819D01*
X143863333Y-60613819D02*
X143963333Y-60661438D01*
X143963333Y-60661438D02*
X144030000Y-60756676D01*
X144030000Y-60756676D02*
X144063333Y-60851914D01*
X144063333Y-60851914D02*
X144096666Y-61042390D01*
X144096666Y-61042390D02*
X144096666Y-61185247D01*
X144096666Y-61185247D02*
X144063333Y-61375723D01*
X144063333Y-61375723D02*
X144030000Y-61470961D01*
X144030000Y-61470961D02*
X143963333Y-61566200D01*
X143963333Y-61566200D02*
X143863333Y-61613819D01*
X143863333Y-61613819D02*
X143696666Y-61613819D01*
X144936666Y-61566200D02*
X145036666Y-61613819D01*
X145036666Y-61613819D02*
X145203333Y-61613819D01*
X145203333Y-61613819D02*
X145269999Y-61566200D01*
X145269999Y-61566200D02*
X145303333Y-61518580D01*
X145303333Y-61518580D02*
X145336666Y-61423342D01*
X145336666Y-61423342D02*
X145336666Y-61328104D01*
X145336666Y-61328104D02*
X145303333Y-61232866D01*
X145303333Y-61232866D02*
X145269999Y-61185247D01*
X145269999Y-61185247D02*
X145203333Y-61137628D01*
X145203333Y-61137628D02*
X145069999Y-61090009D01*
X145069999Y-61090009D02*
X145003333Y-61042390D01*
X145003333Y-61042390D02*
X144969999Y-60994771D01*
X144969999Y-60994771D02*
X144936666Y-60899533D01*
X144936666Y-60899533D02*
X144936666Y-60804295D01*
X144936666Y-60804295D02*
X144969999Y-60709057D01*
X144969999Y-60709057D02*
X145003333Y-60661438D01*
X145003333Y-60661438D02*
X145069999Y-60613819D01*
X145069999Y-60613819D02*
X145236666Y-60613819D01*
X145236666Y-60613819D02*
X145336666Y-60661438D01*
X146036666Y-61518580D02*
X146003333Y-61566200D01*
X146003333Y-61566200D02*
X145903333Y-61613819D01*
X145903333Y-61613819D02*
X145836666Y-61613819D01*
X145836666Y-61613819D02*
X145736666Y-61566200D01*
X145736666Y-61566200D02*
X145670000Y-61470961D01*
X145670000Y-61470961D02*
X145636666Y-61375723D01*
X145636666Y-61375723D02*
X145603333Y-61185247D01*
X145603333Y-61185247D02*
X145603333Y-61042390D01*
X145603333Y-61042390D02*
X145636666Y-60851914D01*
X145636666Y-60851914D02*
X145670000Y-60756676D01*
X145670000Y-60756676D02*
X145736666Y-60661438D01*
X145736666Y-60661438D02*
X145836666Y-60613819D01*
X145836666Y-60613819D02*
X145903333Y-60613819D01*
X145903333Y-60613819D02*
X146003333Y-60661438D01*
X146003333Y-60661438D02*
X146036666Y-60709057D01*
X146670000Y-61613819D02*
X146336666Y-61613819D01*
X146336666Y-61613819D02*
X146336666Y-60613819D01*
X147587000Y-61566200D02*
X147687000Y-61613819D01*
X147687000Y-61613819D02*
X147853667Y-61613819D01*
X147853667Y-61613819D02*
X147920333Y-61566200D01*
X147920333Y-61566200D02*
X147953667Y-61518580D01*
X147953667Y-61518580D02*
X147987000Y-61423342D01*
X147987000Y-61423342D02*
X147987000Y-61328104D01*
X147987000Y-61328104D02*
X147953667Y-61232866D01*
X147953667Y-61232866D02*
X147920333Y-61185247D01*
X147920333Y-61185247D02*
X147853667Y-61137628D01*
X147853667Y-61137628D02*
X147720333Y-61090009D01*
X147720333Y-61090009D02*
X147653667Y-61042390D01*
X147653667Y-61042390D02*
X147620333Y-60994771D01*
X147620333Y-60994771D02*
X147587000Y-60899533D01*
X147587000Y-60899533D02*
X147587000Y-60804295D01*
X147587000Y-60804295D02*
X147620333Y-60709057D01*
X147620333Y-60709057D02*
X147653667Y-60661438D01*
X147653667Y-60661438D02*
X147720333Y-60613819D01*
X147720333Y-60613819D02*
X147887000Y-60613819D01*
X147887000Y-60613819D02*
X147987000Y-60661438D01*
X148287000Y-61613819D02*
X148287000Y-60613819D01*
X148287000Y-60613819D02*
X148453667Y-60613819D01*
X148453667Y-60613819D02*
X148553667Y-60661438D01*
X148553667Y-60661438D02*
X148620334Y-60756676D01*
X148620334Y-60756676D02*
X148653667Y-60851914D01*
X148653667Y-60851914D02*
X148687000Y-61042390D01*
X148687000Y-61042390D02*
X148687000Y-61185247D01*
X148687000Y-61185247D02*
X148653667Y-61375723D01*
X148653667Y-61375723D02*
X148620334Y-61470961D01*
X148620334Y-61470961D02*
X148553667Y-61566200D01*
X148553667Y-61566200D02*
X148453667Y-61613819D01*
X148453667Y-61613819D02*
X148287000Y-61613819D01*
X148953667Y-61328104D02*
X149287000Y-61328104D01*
X148887000Y-61613819D02*
X149120334Y-60613819D01*
X149120334Y-60613819D02*
X149353667Y-61613819D01*
D11*
X141178572Y-96749757D02*
X141035715Y-96678328D01*
X141035715Y-96678328D02*
X140821429Y-96678328D01*
X140821429Y-96678328D02*
X140607143Y-96749757D01*
X140607143Y-96749757D02*
X140464286Y-96892614D01*
X140464286Y-96892614D02*
X140392857Y-97035471D01*
X140392857Y-97035471D02*
X140321429Y-97321185D01*
X140321429Y-97321185D02*
X140321429Y-97535471D01*
X140321429Y-97535471D02*
X140392857Y-97821185D01*
X140392857Y-97821185D02*
X140464286Y-97964042D01*
X140464286Y-97964042D02*
X140607143Y-98106900D01*
X140607143Y-98106900D02*
X140821429Y-98178328D01*
X140821429Y-98178328D02*
X140964286Y-98178328D01*
X140964286Y-98178328D02*
X141178572Y-98106900D01*
X141178572Y-98106900D02*
X141250000Y-98035471D01*
X141250000Y-98035471D02*
X141250000Y-97535471D01*
X141250000Y-97535471D02*
X140964286Y-97535471D01*
X142107143Y-96678328D02*
X142107143Y-97035471D01*
X141750000Y-96892614D02*
X142107143Y-97035471D01*
X142107143Y-97035471D02*
X142464286Y-96892614D01*
X141892857Y-97321185D02*
X142107143Y-97035471D01*
X142107143Y-97035471D02*
X142321429Y-97321185D01*
X143250000Y-96678328D02*
X143250000Y-97035471D01*
X142892857Y-96892614D02*
X143250000Y-97035471D01*
X143250000Y-97035471D02*
X143607143Y-96892614D01*
X143035714Y-97321185D02*
X143250000Y-97035471D01*
X143250000Y-97035471D02*
X143464286Y-97321185D01*
X144392857Y-96678328D02*
X144392857Y-97035471D01*
X144035714Y-96892614D02*
X144392857Y-97035471D01*
X144392857Y-97035471D02*
X144750000Y-96892614D01*
X144178571Y-97321185D02*
X144392857Y-97035471D01*
X144392857Y-97035471D02*
X144607143Y-97321185D01*
D13*
X144072690Y-104903479D02*
X144072690Y-105417526D01*
X144072690Y-105417526D02*
X144102928Y-105478002D01*
X144102928Y-105478002D02*
X144133166Y-105508241D01*
X144133166Y-105508241D02*
X144193642Y-105538479D01*
X144193642Y-105538479D02*
X144314595Y-105538479D01*
X144314595Y-105538479D02*
X144375071Y-105508241D01*
X144375071Y-105508241D02*
X144405309Y-105478002D01*
X144405309Y-105478002D02*
X144435547Y-105417526D01*
X144435547Y-105417526D02*
X144435547Y-104903479D01*
X145070547Y-105538479D02*
X144707690Y-105538479D01*
X144889118Y-105538479D02*
X144889118Y-104903479D01*
X144889118Y-104903479D02*
X144828642Y-104994193D01*
X144828642Y-104994193D02*
X144768166Y-105054669D01*
X144768166Y-105054669D02*
X144707690Y-105084907D01*
D12*
X115835595Y-81954819D02*
X115835595Y-82764342D01*
X115835595Y-82764342D02*
X115883214Y-82859580D01*
X115883214Y-82859580D02*
X115930833Y-82907200D01*
X115930833Y-82907200D02*
X116026071Y-82954819D01*
X116026071Y-82954819D02*
X116216547Y-82954819D01*
X116216547Y-82954819D02*
X116311785Y-82907200D01*
X116311785Y-82907200D02*
X116359404Y-82859580D01*
X116359404Y-82859580D02*
X116407023Y-82764342D01*
X116407023Y-82764342D02*
X116407023Y-81954819D01*
X116835595Y-82050057D02*
X116883214Y-82002438D01*
X116883214Y-82002438D02*
X116978452Y-81954819D01*
X116978452Y-81954819D02*
X117216547Y-81954819D01*
X117216547Y-81954819D02*
X117311785Y-82002438D01*
X117311785Y-82002438D02*
X117359404Y-82050057D01*
X117359404Y-82050057D02*
X117407023Y-82145295D01*
X117407023Y-82145295D02*
X117407023Y-82240533D01*
X117407023Y-82240533D02*
X117359404Y-82383390D01*
X117359404Y-82383390D02*
X116787976Y-82954819D01*
X116787976Y-82954819D02*
X117407023Y-82954819D01*
X109523333Y-95534819D02*
X109190000Y-95058628D01*
X108951905Y-95534819D02*
X108951905Y-94534819D01*
X108951905Y-94534819D02*
X109332857Y-94534819D01*
X109332857Y-94534819D02*
X109428095Y-94582438D01*
X109428095Y-94582438D02*
X109475714Y-94630057D01*
X109475714Y-94630057D02*
X109523333Y-94725295D01*
X109523333Y-94725295D02*
X109523333Y-94868152D01*
X109523333Y-94868152D02*
X109475714Y-94963390D01*
X109475714Y-94963390D02*
X109428095Y-95011009D01*
X109428095Y-95011009D02*
X109332857Y-95058628D01*
X109332857Y-95058628D02*
X108951905Y-95058628D01*
X110475714Y-95534819D02*
X109904286Y-95534819D01*
X110190000Y-95534819D02*
X110190000Y-94534819D01*
X110190000Y-94534819D02*
X110094762Y-94677676D01*
X110094762Y-94677676D02*
X109999524Y-94772914D01*
X109999524Y-94772914D02*
X109904286Y-94820533D01*
X136976667Y-87573200D02*
X137119524Y-87620819D01*
X137119524Y-87620819D02*
X137357619Y-87620819D01*
X137357619Y-87620819D02*
X137452857Y-87573200D01*
X137452857Y-87573200D02*
X137500476Y-87525580D01*
X137500476Y-87525580D02*
X137548095Y-87430342D01*
X137548095Y-87430342D02*
X137548095Y-87335104D01*
X137548095Y-87335104D02*
X137500476Y-87239866D01*
X137500476Y-87239866D02*
X137452857Y-87192247D01*
X137452857Y-87192247D02*
X137357619Y-87144628D01*
X137357619Y-87144628D02*
X137167143Y-87097009D01*
X137167143Y-87097009D02*
X137071905Y-87049390D01*
X137071905Y-87049390D02*
X137024286Y-87001771D01*
X137024286Y-87001771D02*
X136976667Y-86906533D01*
X136976667Y-86906533D02*
X136976667Y-86811295D01*
X136976667Y-86811295D02*
X137024286Y-86716057D01*
X137024286Y-86716057D02*
X137071905Y-86668438D01*
X137071905Y-86668438D02*
X137167143Y-86620819D01*
X137167143Y-86620819D02*
X137405238Y-86620819D01*
X137405238Y-86620819D02*
X137548095Y-86668438D01*
X137881429Y-86620819D02*
X138119524Y-87620819D01*
X138119524Y-87620819D02*
X138310000Y-86906533D01*
X138310000Y-86906533D02*
X138500476Y-87620819D01*
X138500476Y-87620819D02*
X138738572Y-86620819D01*
X139071905Y-86716057D02*
X139119524Y-86668438D01*
X139119524Y-86668438D02*
X139214762Y-86620819D01*
X139214762Y-86620819D02*
X139452857Y-86620819D01*
X139452857Y-86620819D02*
X139548095Y-86668438D01*
X139548095Y-86668438D02*
X139595714Y-86716057D01*
X139595714Y-86716057D02*
X139643333Y-86811295D01*
X139643333Y-86811295D02*
X139643333Y-86906533D01*
X139643333Y-86906533D02*
X139595714Y-87049390D01*
X139595714Y-87049390D02*
X139024286Y-87620819D01*
X139024286Y-87620819D02*
X139643333Y-87620819D01*
X125166666Y-74494819D02*
X125166666Y-75209104D01*
X125166666Y-75209104D02*
X125119047Y-75351961D01*
X125119047Y-75351961D02*
X125023809Y-75447200D01*
X125023809Y-75447200D02*
X124880952Y-75494819D01*
X124880952Y-75494819D02*
X124785714Y-75494819D01*
X125595238Y-74590057D02*
X125642857Y-74542438D01*
X125642857Y-74542438D02*
X125738095Y-74494819D01*
X125738095Y-74494819D02*
X125976190Y-74494819D01*
X125976190Y-74494819D02*
X126071428Y-74542438D01*
X126071428Y-74542438D02*
X126119047Y-74590057D01*
X126119047Y-74590057D02*
X126166666Y-74685295D01*
X126166666Y-74685295D02*
X126166666Y-74780533D01*
X126166666Y-74780533D02*
X126119047Y-74923390D01*
X126119047Y-74923390D02*
X125547619Y-75494819D01*
X125547619Y-75494819D02*
X126166666Y-75494819D01*
X155976667Y-87573200D02*
X156119524Y-87620819D01*
X156119524Y-87620819D02*
X156357619Y-87620819D01*
X156357619Y-87620819D02*
X156452857Y-87573200D01*
X156452857Y-87573200D02*
X156500476Y-87525580D01*
X156500476Y-87525580D02*
X156548095Y-87430342D01*
X156548095Y-87430342D02*
X156548095Y-87335104D01*
X156548095Y-87335104D02*
X156500476Y-87239866D01*
X156500476Y-87239866D02*
X156452857Y-87192247D01*
X156452857Y-87192247D02*
X156357619Y-87144628D01*
X156357619Y-87144628D02*
X156167143Y-87097009D01*
X156167143Y-87097009D02*
X156071905Y-87049390D01*
X156071905Y-87049390D02*
X156024286Y-87001771D01*
X156024286Y-87001771D02*
X155976667Y-86906533D01*
X155976667Y-86906533D02*
X155976667Y-86811295D01*
X155976667Y-86811295D02*
X156024286Y-86716057D01*
X156024286Y-86716057D02*
X156071905Y-86668438D01*
X156071905Y-86668438D02*
X156167143Y-86620819D01*
X156167143Y-86620819D02*
X156405238Y-86620819D01*
X156405238Y-86620819D02*
X156548095Y-86668438D01*
X156881429Y-86620819D02*
X157119524Y-87620819D01*
X157119524Y-87620819D02*
X157310000Y-86906533D01*
X157310000Y-86906533D02*
X157500476Y-87620819D01*
X157500476Y-87620819D02*
X157738572Y-86620819D01*
X158643333Y-87620819D02*
X158071905Y-87620819D01*
X158357619Y-87620819D02*
X158357619Y-86620819D01*
X158357619Y-86620819D02*
X158262381Y-86763676D01*
X158262381Y-86763676D02*
X158167143Y-86858914D01*
X158167143Y-86858914D02*
X158071905Y-86906533D01*
D11*
X141178572Y-97749757D02*
X141035715Y-97678328D01*
X141035715Y-97678328D02*
X140821429Y-97678328D01*
X140821429Y-97678328D02*
X140607143Y-97749757D01*
X140607143Y-97749757D02*
X140464286Y-97892614D01*
X140464286Y-97892614D02*
X140392857Y-98035471D01*
X140392857Y-98035471D02*
X140321429Y-98321185D01*
X140321429Y-98321185D02*
X140321429Y-98535471D01*
X140321429Y-98535471D02*
X140392857Y-98821185D01*
X140392857Y-98821185D02*
X140464286Y-98964042D01*
X140464286Y-98964042D02*
X140607143Y-99106900D01*
X140607143Y-99106900D02*
X140821429Y-99178328D01*
X140821429Y-99178328D02*
X140964286Y-99178328D01*
X140964286Y-99178328D02*
X141178572Y-99106900D01*
X141178572Y-99106900D02*
X141250000Y-99035471D01*
X141250000Y-99035471D02*
X141250000Y-98535471D01*
X141250000Y-98535471D02*
X140964286Y-98535471D01*
X142107143Y-97678328D02*
X142107143Y-98035471D01*
X141750000Y-97892614D02*
X142107143Y-98035471D01*
X142107143Y-98035471D02*
X142464286Y-97892614D01*
X141892857Y-98321185D02*
X142107143Y-98035471D01*
X142107143Y-98035471D02*
X142321429Y-98321185D01*
X143250000Y-97678328D02*
X143250000Y-98035471D01*
X142892857Y-97892614D02*
X143250000Y-98035471D01*
X143250000Y-98035471D02*
X143607143Y-97892614D01*
X143035714Y-98321185D02*
X143250000Y-98035471D01*
X143250000Y-98035471D02*
X143464286Y-98321185D01*
X144392857Y-97678328D02*
X144392857Y-98035471D01*
X144035714Y-97892614D02*
X144392857Y-98035471D01*
X144392857Y-98035471D02*
X144750000Y-97892614D01*
X144178571Y-98321185D02*
X144392857Y-98035471D01*
X144392857Y-98035471D02*
X144607143Y-98321185D01*
D14*
%TO.C,G\u002A\u002A\u002A*%
G36*
X116242841Y-85808128D02*
G01*
X117762022Y-86326028D01*
X119119854Y-87187039D01*
X120244394Y-88361744D01*
X121063699Y-89820722D01*
X121505826Y-91534555D01*
X121562939Y-92487886D01*
X121369896Y-94315345D01*
X120779850Y-95849415D01*
X119756262Y-97184115D01*
X119726016Y-97214528D01*
X118223468Y-98372264D01*
X116535316Y-99067867D01*
X114743798Y-99281925D01*
X112931155Y-98995028D01*
X112618623Y-98892127D01*
X111007368Y-98064574D01*
X109729873Y-96899498D01*
X108806099Y-95481511D01*
X108256009Y-93895226D01*
X108099562Y-92225257D01*
X108356720Y-90556216D01*
X108604340Y-89988541D01*
X110170758Y-89988541D01*
X110978026Y-91259333D01*
X111785295Y-92530124D01*
X110988481Y-93688254D01*
X110541651Y-94363811D01*
X110252527Y-94851057D01*
X110191666Y-94997150D01*
X110431743Y-95077683D01*
X111054196Y-95132386D01*
X111733939Y-95147916D01*
X113276212Y-95147916D01*
X113895833Y-96470833D01*
X114249095Y-97196006D01*
X114509254Y-97676521D01*
X114598061Y-97793750D01*
X114752089Y-97578952D01*
X115062946Y-97024716D01*
X115344618Y-96483509D01*
X116008567Y-95173269D01*
X117591884Y-95094447D01*
X119175201Y-95015625D01*
X118365329Y-93772750D01*
X117555457Y-92529875D01*
X118371478Y-91343828D01*
X118825154Y-90653244D01*
X119121432Y-90142421D01*
X119187499Y-89974252D01*
X118949261Y-89894429D01*
X118333526Y-89878839D01*
X117708537Y-89913370D01*
X116229574Y-90036017D01*
X115525724Y-88759320D01*
X115114404Y-88056472D01*
X114796427Y-87591128D01*
X114676159Y-87478812D01*
X114487268Y-87692765D01*
X114166649Y-88242902D01*
X113958250Y-88652748D01*
X113386056Y-89830496D01*
X111778407Y-89909518D01*
X110170758Y-89988541D01*
X108604340Y-89988541D01*
X109047444Y-88972717D01*
X109991496Y-87756039D01*
X111436639Y-86607296D01*
X113008206Y-85919343D01*
X114634255Y-85662760D01*
X116242841Y-85808128D01*
G37*
G36*
X175213479Y-86091440D02*
G01*
X176678487Y-86817265D01*
X177988529Y-87934067D01*
X179074662Y-89457331D01*
X179146897Y-89591666D01*
X179504862Y-90679873D01*
X179655419Y-92051257D01*
X179601755Y-93503541D01*
X179347060Y-94834446D01*
X179052472Y-95582508D01*
X177993814Y-97055753D01*
X176604725Y-98195444D01*
X174986570Y-98954635D01*
X173240714Y-99286381D01*
X171468523Y-99143737D01*
X171398253Y-99127436D01*
X169669691Y-98459726D01*
X168226764Y-97387736D01*
X167127063Y-95984692D01*
X166711510Y-94997150D01*
X168664583Y-94997150D01*
X168904660Y-95077683D01*
X169527112Y-95132386D01*
X170206856Y-95147916D01*
X171749128Y-95147916D01*
X172368750Y-96470833D01*
X172722011Y-97196006D01*
X172982171Y-97676521D01*
X173070978Y-97793750D01*
X173225006Y-97578952D01*
X173535863Y-97024716D01*
X173817534Y-96483509D01*
X174481483Y-95173269D01*
X176064801Y-95094447D01*
X177648118Y-95015625D01*
X176838245Y-93772750D01*
X176028373Y-92529875D01*
X176844395Y-91343828D01*
X177297862Y-90654990D01*
X177594148Y-90147860D01*
X177660416Y-89982567D01*
X177421274Y-89902797D01*
X176801798Y-89876091D01*
X176139062Y-89897947D01*
X174617708Y-89988541D01*
X173956250Y-88732536D01*
X173565899Y-88034039D01*
X173267722Y-87577681D01*
X173162045Y-87475765D01*
X172973771Y-87687954D01*
X172637068Y-88231720D01*
X172397674Y-88665625D01*
X171766049Y-89856250D01*
X170215316Y-89856250D01*
X169388920Y-89875314D01*
X168826381Y-89924768D01*
X168664583Y-89979353D01*
X168794775Y-90252420D01*
X169130243Y-90826110D01*
X169447335Y-91336728D01*
X170230088Y-92571001D01*
X169447335Y-93708692D01*
X169004966Y-94378218D01*
X168721177Y-94858754D01*
X168664583Y-94997150D01*
X166711510Y-94997150D01*
X166428177Y-94323821D01*
X166187639Y-92502083D01*
X166410473Y-90657474D01*
X166676737Y-89979353D01*
X167029875Y-89079979D01*
X167976904Y-87785080D01*
X169182617Y-86788260D01*
X170578073Y-86105004D01*
X172094330Y-85750793D01*
X173662446Y-85741110D01*
X175213479Y-86091440D01*
G37*
%TO.C,J1*%
D15*
X141960000Y-60330000D02*
X149640000Y-60330000D01*
X141960000Y-57670000D02*
X149640000Y-57670000D01*
X140690000Y-60330000D02*
X139360000Y-60330000D01*
X141960000Y-60330000D02*
X141960000Y-57670000D01*
X139360000Y-60330000D02*
X139360000Y-59000000D01*
X149640000Y-60330000D02*
X149640000Y-57670000D01*
X130784000Y-57603000D02*
X158216000Y-57603000D01*
X130784000Y-62810000D02*
X158216000Y-62810000D01*
X130784000Y-79701000D02*
X158216000Y-79701000D01*
X130784000Y-84781000D02*
X130911000Y-57603000D01*
X158216000Y-84781000D02*
X130784000Y-84781000D01*
X158216000Y-84781000D02*
X158216000Y-57603000D01*
D14*
%TO.C,G\u002A\u002A\u002A*%
G36*
X177648424Y-100613825D02*
G01*
X178833271Y-101267565D01*
X179730929Y-102271886D01*
X180290136Y-103557038D01*
X180459626Y-105053275D01*
X180357481Y-105999321D01*
X179879700Y-107219454D01*
X179006314Y-108263620D01*
X177851764Y-109074722D01*
X176530489Y-109595660D01*
X175156929Y-109769337D01*
X173845522Y-109538653D01*
X173529896Y-109405894D01*
X172744329Y-109028193D01*
X173660824Y-109220161D01*
X175371891Y-109370424D01*
X176943280Y-109106994D01*
X178288930Y-108459602D01*
X179322776Y-107457974D01*
X179491859Y-107205985D01*
X179922785Y-106143835D01*
X180089303Y-104908526D01*
X179989867Y-103695771D01*
X179622934Y-102701281D01*
X179528499Y-102560746D01*
X178505781Y-101521042D01*
X177334667Y-100882930D01*
X176109265Y-100650367D01*
X174923686Y-100827309D01*
X173872038Y-101417714D01*
X173126511Y-102291578D01*
X172647491Y-103493061D01*
X172679536Y-104650501D01*
X173217772Y-105715506D01*
X173503710Y-106036494D01*
X174492554Y-106736326D01*
X175523754Y-106935136D01*
X176539423Y-106626995D01*
X176898706Y-106384086D01*
X177439639Y-105686358D01*
X177631943Y-104835365D01*
X177472777Y-104008794D01*
X176959296Y-103384333D01*
X176946841Y-103376073D01*
X176213435Y-103109423D01*
X175549253Y-103221105D01*
X175126497Y-103681720D01*
X175124371Y-103687206D01*
X175080628Y-104219907D01*
X175352705Y-104494742D01*
X175651228Y-104465244D01*
X175971900Y-104473617D01*
X176017525Y-104578321D01*
X175814294Y-104786069D01*
X175373481Y-104816292D01*
X174948405Y-104673917D01*
X174829976Y-104555220D01*
X174756403Y-104107201D01*
X174818510Y-103642713D01*
X175183107Y-103062412D01*
X175806489Y-102800074D01*
X176543569Y-102840258D01*
X177249257Y-103167523D01*
X177778462Y-103766428D01*
X177870294Y-103967488D01*
X178027532Y-105012323D01*
X177733155Y-105945090D01*
X177058859Y-106674206D01*
X176076343Y-107108085D01*
X175348603Y-107188659D01*
X174501421Y-107124032D01*
X173878104Y-106854429D01*
X173241855Y-106298350D01*
X172675460Y-105649016D01*
X172416136Y-105034816D01*
X172352567Y-104185350D01*
X172352524Y-104138040D01*
X172565780Y-102697742D01*
X173183321Y-101579402D01*
X174175495Y-100811777D01*
X175512646Y-100423623D01*
X176227653Y-100380412D01*
X177648424Y-100613825D01*
G37*
G36*
X111574750Y-100603640D02*
G01*
X112717571Y-101232425D01*
X113514220Y-102220998D01*
X113916370Y-103521868D01*
X113956006Y-104138040D01*
X113899193Y-105003736D01*
X113651713Y-105622050D01*
X113102401Y-106263244D01*
X113067422Y-106298350D01*
X112401957Y-106873295D01*
X111770359Y-107132103D01*
X110987179Y-107188659D01*
X109777939Y-106982658D01*
X108893319Y-106385030D01*
X108371847Y-105426335D01*
X108287854Y-105047587D01*
X108252313Y-104299894D01*
X108507530Y-103744043D01*
X108808503Y-103410989D01*
X109432713Y-102953854D01*
X110054583Y-102739387D01*
X110108337Y-102737113D01*
X110786078Y-102937943D01*
X111327048Y-103428205D01*
X111567286Y-104039556D01*
X111555844Y-104223300D01*
X111323690Y-104551026D01*
X110900209Y-104770945D01*
X110488654Y-104819687D01*
X110292276Y-104633885D01*
X110291752Y-104617410D01*
X110503713Y-104419263D01*
X110721816Y-104402806D01*
X111163238Y-104277921D01*
X111236480Y-103894067D01*
X110939377Y-103422146D01*
X110366065Y-103046979D01*
X109765361Y-103127035D01*
X109229696Y-103481874D01*
X108714711Y-104172841D01*
X108620786Y-104965186D01*
X108890746Y-105746833D01*
X109467414Y-106405708D01*
X110293612Y-106829734D01*
X110987179Y-106926803D01*
X111979109Y-106686909D01*
X112846311Y-106055049D01*
X113460876Y-105162962D01*
X113694896Y-104142383D01*
X113694897Y-104138040D01*
X113466210Y-102928282D01*
X112850702Y-101851166D01*
X111950653Y-101081567D01*
X111887469Y-101047763D01*
X110635792Y-100662175D01*
X109389295Y-100730949D01*
X108233880Y-101190993D01*
X107255449Y-101979217D01*
X106539905Y-103032531D01*
X106173151Y-104287842D01*
X106169328Y-105247456D01*
X106569669Y-106734289D01*
X107367063Y-107924564D01*
X108505074Y-108783677D01*
X109927264Y-109277023D01*
X111577198Y-109369998D01*
X112648453Y-109220161D01*
X113564948Y-109028193D01*
X112779381Y-109405894D01*
X111533677Y-109743688D01*
X110135818Y-109700256D01*
X108851546Y-109310773D01*
X107441228Y-108417692D01*
X106474866Y-107247121D01*
X105948674Y-105793128D01*
X105840205Y-104591780D01*
X106081006Y-103186735D01*
X106749913Y-101986274D01*
X107766680Y-101069065D01*
X109051065Y-100513780D01*
X110134084Y-100382137D01*
X111574750Y-100603640D01*
G37*
%TO.C,U1*%
D16*
X155233500Y-106550000D02*
G75*
G02*
X154729500Y-106550000I-252000J0D01*
G01*
X154729500Y-106550000D02*
G75*
G02*
X155233500Y-106550000I252000J0D01*
G01*
X154353500Y-107693000D02*
G75*
G02*
X153849500Y-107693000I-252000J0D01*
G01*
X153849500Y-107693000D02*
G75*
G02*
X154353500Y-107693000I252000J0D01*
G01*
D17*
X156732500Y-119504000D02*
G75*
G02*
X156232500Y-120004000I-500000J0D01*
G01*
X156232772Y-111008728D02*
G75*
G02*
X156732472Y-111508728I-272J-499972D01*
G01*
X155222500Y-122485000D02*
G75*
G02*
X153317500Y-124390000I-1905000J0D01*
G01*
X153317500Y-106610000D02*
G75*
G02*
X155222500Y-108515000I0J-1905000D01*
G01*
X136172500Y-124390000D02*
G75*
G02*
X134267500Y-122485000I1J1905001D01*
G01*
X134267500Y-108515000D02*
G75*
G02*
X136172500Y-106610000I1905001J-1D01*
G01*
X156732500Y-111508728D02*
X156732500Y-119504000D01*
X156232500Y-120004000D02*
X155222500Y-120004000D01*
X155222500Y-122485000D02*
X155222500Y-108515000D01*
D10*
X155222500Y-122485000D02*
X155222500Y-108515000D01*
D17*
X155222500Y-111005000D02*
X156232772Y-111008728D01*
X136172500Y-124390000D02*
X153317500Y-124390000D01*
X136172500Y-106610000D02*
X153317500Y-106610000D01*
X134267500Y-108515000D02*
X134267500Y-122485000D01*
%TO.C,U2*%
D15*
X114437500Y-83400000D02*
X114437500Y-85400000D01*
X114437500Y-83400000D02*
X116047500Y-83400000D01*
X114717500Y-95940000D02*
X114717500Y-83690000D01*
X114727500Y-83680000D02*
X120467500Y-83680000D01*
X120477500Y-83680000D02*
X120477500Y-95940000D01*
X120477500Y-95940000D02*
X114717500Y-95940000D01*
%TO.C,R1*%
X106820000Y-97000000D02*
X107770000Y-97000000D01*
X112560000Y-97000000D02*
X111610000Y-97000000D01*
X107770000Y-96080000D02*
X111610000Y-96080000D01*
X111610000Y-97920000D01*
X107770000Y-97920000D01*
X107770000Y-96080000D01*
%TO.C,SW2*%
X131325000Y-88055000D02*
X145295000Y-88055000D01*
X131325000Y-102025000D02*
X131325000Y-88055000D01*
X145295000Y-88055000D02*
X145295000Y-102025000D01*
X145295000Y-102025000D02*
X131325000Y-102025000D01*
%TO.C,J2*%
X124120000Y-76040000D02*
X125500000Y-76040000D01*
X124120000Y-77420000D02*
X124120000Y-76040000D01*
X124120000Y-78690000D02*
X124120000Y-96580000D01*
X124120000Y-78690000D02*
X126880000Y-78690000D01*
X124120000Y-96580000D02*
X126880000Y-96580000D01*
X126880000Y-78690000D02*
X126880000Y-96580000D01*
%TO.C,SW1*%
X150325000Y-88055000D02*
X164295000Y-88055000D01*
X150325000Y-102025000D02*
X150325000Y-88055000D01*
X164295000Y-88055000D02*
X164295000Y-102025000D01*
X164295000Y-102025000D02*
X150325000Y-102025000D01*
D14*
%TO.C,G\u002A\u002A\u002A*%
G36*
X139907703Y-141674505D02*
G01*
X140506358Y-141846434D01*
X141054616Y-142254448D01*
X141335833Y-142526666D01*
X142045054Y-143503452D01*
X142263069Y-144472705D01*
X142026827Y-145394192D01*
X141373276Y-146227679D01*
X140339366Y-146932933D01*
X138962045Y-147469719D01*
X137278262Y-147797805D01*
X136431885Y-147866565D01*
X134974010Y-147860752D01*
X133671990Y-147715101D01*
X133165578Y-147599023D01*
X131828497Y-147066403D01*
X130734031Y-146345261D01*
X129961912Y-145511347D01*
X129591873Y-144640414D01*
X129584949Y-144197163D01*
X129667133Y-143962999D01*
X129890282Y-143756519D01*
X130330042Y-143548736D01*
X131062060Y-143310662D01*
X132161983Y-143013310D01*
X133636458Y-142644632D01*
X135142500Y-142296172D01*
X136589773Y-141999742D01*
X137844827Y-141780033D01*
X138774215Y-141661737D01*
X139020729Y-141648403D01*
X139907703Y-141674505D01*
G37*
G36*
X150412518Y-141704090D02*
G01*
X151604435Y-141891703D01*
X153039219Y-142172521D01*
X154583467Y-142521984D01*
X155067708Y-142641462D01*
X156576438Y-143026122D01*
X157647841Y-143317980D01*
X158358820Y-143549056D01*
X158786281Y-143751372D01*
X159007129Y-143956951D01*
X159098270Y-144197814D01*
X159117637Y-144327766D01*
X158967506Y-145067489D01*
X158431542Y-145879417D01*
X157616882Y-146643408D01*
X156630666Y-147239321D01*
X156453402Y-147315370D01*
X155403083Y-147603800D01*
X154041935Y-147796311D01*
X152581844Y-147879343D01*
X151234701Y-147839335D01*
X150362755Y-147705156D01*
X148811070Y-147151185D01*
X147623562Y-146335608D01*
X147161724Y-145849619D01*
X146599286Y-144911388D01*
X146539956Y-143985339D01*
X146986188Y-143005240D01*
X147281762Y-142613408D01*
X147788143Y-142047927D01*
X148240393Y-141754786D01*
X148845371Y-141646493D01*
X149596866Y-141634242D01*
X150412518Y-141704090D01*
G37*
%TD*%
M02*
