%TF.GenerationSoftware,KiCad,Pcbnew,10.0.6*%
%TF.CreationDate,2026-10-09T21:38:27+01:00*%
%TF.ProjectId,PCB Week,50434220-5765-4656-9b2e-6b696361645f,rev?*%
%TF.SameCoordinates,Original*%
%TF.FileFunction,Profile,NP*%
%FSLAX46Y46*%
G04 Gerber Fmt 4.6, Leading zero omitted, Abs format (unit mm)*
G04 Created by KiCad (PCBNEW 10.0.6) date 2026-10-09 21:38:27*
%MOMM*%
%LPD*%
G01*
G04 APERTURE LIST*
%TA.AperFunction,Profile*%
%ADD10C,0.100000*%
%TD*%
G04 APERTURE END LIST*
D10*
X145611584Y-49553123D02*
X146627024Y-49663612D01*
X147631914Y-49846080D01*
X148625226Y-50099155D01*
X149605936Y-50421464D01*
X150573020Y-50811636D01*
X151525451Y-51268297D01*
X152462204Y-51790078D01*
X153382255Y-52375604D01*
X154284577Y-53023505D01*
X156031937Y-54500941D01*
X157696081Y-56211411D01*
X159268809Y-58143936D01*
X160741918Y-60287542D01*
X162107205Y-62631252D01*
X163356471Y-65164089D01*
X164481512Y-67875078D01*
X165474126Y-70753242D01*
X166326113Y-73787604D01*
X167029269Y-76967189D01*
X167575394Y-80281021D01*
X168930152Y-80664024D01*
X170244448Y-81123176D01*
X171515209Y-81655686D01*
X172739363Y-82258768D01*
X173913835Y-82929631D01*
X175035554Y-83665487D01*
X176101446Y-84463547D01*
X177108439Y-85321022D01*
X178053459Y-86235124D01*
X178933434Y-87203063D01*
X179745291Y-88222051D01*
X180485956Y-89289299D01*
X181152357Y-90402019D01*
X181741422Y-91557420D01*
X182250076Y-92752715D01*
X182675248Y-93985115D01*
X182868485Y-94662944D01*
X183034459Y-95343200D01*
X183173360Y-96025288D01*
X183285380Y-96708615D01*
X183370708Y-97392587D01*
X183429536Y-98076607D01*
X183462052Y-98760084D01*
X183468449Y-99442421D01*
X183448917Y-100123025D01*
X183403646Y-100801302D01*
X183332826Y-101476657D01*
X183236648Y-102148496D01*
X182968981Y-103479249D01*
X182602169Y-104788806D01*
X182137735Y-106072412D01*
X181577203Y-107325314D01*
X180922099Y-108542757D01*
X180173945Y-109719986D01*
X179334266Y-110852248D01*
X178404586Y-111934786D01*
X177906472Y-112455924D01*
X177386429Y-112962848D01*
X176844648Y-113454964D01*
X176281319Y-113931679D01*
X166500000Y-104000000D01*
X165962855Y-106088146D01*
X165359369Y-108109474D01*
X164691901Y-110060370D01*
X163962809Y-111937216D01*
X163174450Y-113736395D01*
X162329183Y-115454291D01*
X161429365Y-117087288D01*
X160477354Y-118631768D01*
X159475509Y-120084116D01*
X158426186Y-121440714D01*
X157331744Y-122697947D01*
X156768341Y-123288171D01*
X156194541Y-123852197D01*
X155610641Y-124389574D01*
X155016935Y-124899848D01*
X154413717Y-125382569D01*
X153801283Y-125837284D01*
X153179927Y-126263541D01*
X152549944Y-126660888D01*
X151911628Y-127028872D01*
X151265274Y-127367042D01*
X151265274Y-141666939D01*
X159214661Y-143578972D01*
X159270825Y-143746742D01*
X159312655Y-143914303D01*
X159340376Y-144081431D01*
X159354210Y-144247906D01*
X159354382Y-144413507D01*
X159341114Y-144578012D01*
X159314630Y-144741199D01*
X159275153Y-144902848D01*
X159222907Y-145062736D01*
X159158115Y-145220643D01*
X159081001Y-145376347D01*
X158991788Y-145529626D01*
X158890699Y-145680260D01*
X158777958Y-145828026D01*
X158653788Y-145972703D01*
X158518413Y-146114071D01*
X158372056Y-146251907D01*
X158214940Y-146385990D01*
X157869327Y-146642012D01*
X157483360Y-146880365D01*
X157058827Y-147099279D01*
X156597515Y-147296981D01*
X156101212Y-147471702D01*
X155571705Y-147621668D01*
X155010781Y-147745109D01*
X154431944Y-147838528D01*
X153849673Y-147900101D01*
X153267287Y-147930625D01*
X152688109Y-147930901D01*
X152115461Y-147901728D01*
X151552664Y-147843903D01*
X151003040Y-147758227D01*
X150469911Y-147645498D01*
X149956599Y-147506516D01*
X149466425Y-147342079D01*
X149002711Y-147152986D01*
X148568779Y-146940037D01*
X148167950Y-146704030D01*
X147980988Y-146577630D01*
X147803547Y-146445765D01*
X147636043Y-146308535D01*
X147478891Y-146166040D01*
X147332507Y-146018379D01*
X147197304Y-145865654D01*
X147100107Y-145743279D01*
X147011477Y-145619632D01*
X146931380Y-145494841D01*
X146859786Y-145369034D01*
X146796662Y-145242338D01*
X146741976Y-145114882D01*
X146695696Y-144986793D01*
X146657790Y-144858199D01*
X146628226Y-144729227D01*
X146606973Y-144600007D01*
X146593997Y-144470664D01*
X146589268Y-144341328D01*
X146592753Y-144212126D01*
X146604420Y-144083185D01*
X146624237Y-143954634D01*
X146652173Y-143826601D01*
X146688194Y-143699213D01*
X146732270Y-143572598D01*
X146784367Y-143446883D01*
X146844455Y-143322197D01*
X146912501Y-143198668D01*
X146988474Y-143076423D01*
X147072340Y-142955590D01*
X147164068Y-142836296D01*
X147263627Y-142718671D01*
X147370984Y-142602840D01*
X147486107Y-142488933D01*
X147608964Y-142377078D01*
X147739523Y-142267401D01*
X147877753Y-142160030D01*
X148023620Y-142055094D01*
X148177094Y-141952721D01*
X148177102Y-128529228D01*
X147731014Y-128637515D01*
X147283903Y-128731413D01*
X146835892Y-128810906D01*
X146387102Y-128875978D01*
X145937655Y-128926615D01*
X145487675Y-128962800D01*
X145037283Y-128984518D01*
X144586602Y-128991753D01*
X144116490Y-128983866D01*
X143646704Y-128960218D01*
X143177385Y-128920829D01*
X142708671Y-128865717D01*
X142240702Y-128794902D01*
X141773618Y-128708402D01*
X141307557Y-128606237D01*
X140842659Y-128488426D01*
X140842659Y-141915520D01*
X141000583Y-142017981D01*
X141150760Y-142123121D01*
X141293156Y-142230807D01*
X141427735Y-142340906D01*
X141554464Y-142453286D01*
X141673307Y-142567815D01*
X141784229Y-142684360D01*
X141887196Y-142802789D01*
X141982174Y-142922970D01*
X142069126Y-143044770D01*
X142148019Y-143168058D01*
X142218817Y-143292699D01*
X142281486Y-143418563D01*
X142335990Y-143545517D01*
X142382296Y-143673428D01*
X142420369Y-143802164D01*
X142450172Y-143931593D01*
X142471673Y-144061583D01*
X142484836Y-144192000D01*
X142489625Y-144322713D01*
X142486008Y-144453590D01*
X142473947Y-144584497D01*
X142453410Y-144715304D01*
X142424360Y-144845876D01*
X142386764Y-144976082D01*
X142340586Y-145105790D01*
X142285792Y-145234867D01*
X142222346Y-145363181D01*
X142150214Y-145490599D01*
X142069362Y-145616990D01*
X141979754Y-145742220D01*
X141881356Y-145866158D01*
X141599769Y-146166546D01*
X141275113Y-146446273D01*
X140910710Y-146704541D01*
X140509881Y-146940550D01*
X140075949Y-147153501D01*
X139612236Y-147342595D01*
X139122062Y-147507033D01*
X138608750Y-147646017D01*
X138075621Y-147758747D01*
X137525998Y-147844425D01*
X136963202Y-147902251D01*
X136390554Y-147931426D01*
X135811377Y-147931152D01*
X135228992Y-147900630D01*
X134646722Y-147839060D01*
X134067887Y-147745644D01*
X133783629Y-147687337D01*
X133507002Y-147622178D01*
X133238229Y-147550389D01*
X132977534Y-147472192D01*
X132725140Y-147387807D01*
X132481271Y-147297455D01*
X132246150Y-147201359D01*
X132020000Y-147099740D01*
X131803044Y-146992818D01*
X131595507Y-146880817D01*
X131397611Y-146763955D01*
X131209579Y-146642457D01*
X131031636Y-146516541D01*
X130864004Y-146386431D01*
X130706906Y-146252347D01*
X130560567Y-146114511D01*
X130425210Y-145973145D01*
X130301057Y-145828468D01*
X130188333Y-145680704D01*
X130087260Y-145530073D01*
X129998062Y-145376797D01*
X129920963Y-145221097D01*
X129856185Y-145063195D01*
X129803952Y-144903311D01*
X129764488Y-144741668D01*
X129738016Y-144578486D01*
X129724758Y-144413988D01*
X129724940Y-144248394D01*
X129738783Y-144081926D01*
X129766511Y-143914805D01*
X129808349Y-143747253D01*
X129864518Y-143579491D01*
X137753952Y-141681938D01*
X137753937Y-127289513D01*
X136404188Y-126526566D01*
X135092619Y-125634254D01*
X133821901Y-124616925D01*
X132594701Y-123478928D01*
X131413687Y-122224613D01*
X130281528Y-120858327D01*
X129200891Y-119384421D01*
X128174447Y-117807242D01*
X127204861Y-116131141D01*
X126294804Y-114360466D01*
X125446943Y-112499567D01*
X124663946Y-110552791D01*
X123948482Y-108524489D01*
X123303220Y-106419009D01*
X122730826Y-104240700D01*
X122233971Y-101993912D01*
X110476551Y-113931679D01*
X109371477Y-112962829D01*
X108353355Y-111934751D01*
X107423711Y-110852199D01*
X106584068Y-109719927D01*
X105835950Y-108542690D01*
X105180880Y-107325241D01*
X104620384Y-106072336D01*
X104155984Y-104788728D01*
X103789205Y-103479172D01*
X103521571Y-102148423D01*
X103354605Y-100801234D01*
X103289832Y-99442361D01*
X103328775Y-98076557D01*
X103472959Y-96708577D01*
X103723906Y-95343176D01*
X104083142Y-93985107D01*
X104546785Y-92653512D01*
X105107283Y-91366632D01*
X105760630Y-90127817D01*
X106502822Y-88940420D01*
X107329856Y-87807794D01*
X108237728Y-86733289D01*
X109222433Y-85720258D01*
X110279968Y-84772054D01*
X111406328Y-83892027D01*
X112597510Y-83083530D01*
X113849509Y-82349915D01*
X115158321Y-81694534D01*
X116519943Y-81120738D01*
X117930370Y-80631881D01*
X119385598Y-80231312D01*
X120881623Y-79922386D01*
X121077265Y-79889435D01*
X121273217Y-79858125D01*
X121469477Y-79828458D01*
X121666047Y-79800438D01*
X121928472Y-78149275D01*
X122230196Y-76530344D01*
X122570217Y-74944968D01*
X122947533Y-73394471D01*
X123361142Y-71880178D01*
X123810043Y-70403411D01*
X124293233Y-68965494D01*
X124809711Y-67567752D01*
X125358475Y-66211508D01*
X125938523Y-64898086D01*
X126548853Y-63628809D01*
X127188462Y-62405002D01*
X127856351Y-61227988D01*
X128551515Y-60099090D01*
X129272954Y-59019633D01*
X130019666Y-57990940D01*
X130790649Y-57014335D01*
X131584900Y-56091142D01*
X132401419Y-55222685D01*
X133239203Y-54410287D01*
X134097250Y-53655272D01*
X134974558Y-52958964D01*
X135870126Y-52322686D01*
X136782952Y-51747763D01*
X137712033Y-51235518D01*
X138656369Y-50787275D01*
X139614956Y-50404357D01*
X140586794Y-50088089D01*
X141570880Y-49839793D01*
X142566213Y-49660795D01*
X143571790Y-49552417D01*
X144586609Y-49515984D01*
X144586617Y-49515984D01*
X145611584Y-49553123D01*
M02*
