M48
; DRILL file KiCad 10.0.6 date 2026-10-09T21:39:11
; FORMAT={-:-/ absolute / metric / decimal}
; #@! TF.CreationDate,2026-10-09T21:39:11+01:00
; #@! TF.GenerationSoftware,Kicad,Pcbnew,10.0.6
; #@! TF.FileFunction,Plated,1,2,PTH
FMAT,2
METRIC
; #@! TA.AperFunction,Plated,PTH,ComponentDrill
T1C0.700
; #@! TA.AperFunction,Plated,PTH,ComponentDrill
T2C0.800
; #@! TA.AperFunction,Plated,PTH,ComponentDrill
T3C0.889
; #@! TA.AperFunction,Plated,PTH,ComponentDrill
T4C1.000
; #@! TA.AperFunction,Plated,PTH,ComponentDrill
T5C1.500
%
G90
G05
T1
X105.88Y-97.0
X113.5Y-97.0
T2
X117.597Y-86.0
X117.597Y-88.54
X117.597Y-91.08
X117.597Y-93.62
T3
X137.061Y-107.88
X137.061Y-123.12
X139.601Y-107.88
X139.601Y-123.12
X142.142Y-107.88
X142.142Y-123.12
X144.681Y-107.88
X144.681Y-123.12
X147.221Y-107.88
X147.221Y-123.12
X149.761Y-107.88
X149.761Y-123.12
X152.302Y-107.88
X152.302Y-123.12
T4
X125.5Y-77.42
X125.5Y-79.96
X125.5Y-82.5
X125.5Y-85.04
X125.5Y-87.58
X125.5Y-90.12
X125.5Y-92.66
X125.5Y-95.2
X140.69Y-59.0
X143.23Y-59.0
X145.77Y-59.0
X148.31Y-59.0
T5
X134.5Y-92.5
X140.85Y-89.96
X153.5Y-92.5
X159.85Y-89.96
M30
